<?xml version="1.0" standalone="no"?><!DOCTYPE svg PUBLIC "-//W3C//DTD SVG 1.1//EN" "http://www.w3.org/Graphics/SVG/1.1/DTD/svg11.dtd"><svg t="1576489992627" class="icon" viewBox="0 0 1024 1024" version="1.1" xmlns="http://www.w3.org/2000/svg" p-id="4755" xmlns:xlink="http://www.w3.org/1999/xlink" width="64" height="64"><defs><style type="text/css"></style></defs><path d="M423.150798 520.058435V467.802055H326.680285v-25.830703l94.807019-130.626783h23.386056v138.235953h30.841423v18.221533h-30.841423v52.25638h-21.722562z m-77.479968-70.477913h77.479968V340.672253l-77.479968 108.908269z m301.990957-35.253123c0 16.307099-1.538024 30.966893-4.626214 43.967241-3.08819 13.024632-7.649644 24.106498-13.660079 33.269882-6.030672 9.163383-13.534609 16.197818-22.552285 21.119494-9.017676 4.905486-19.43981 7.374419-31.290687 7.374419s-22.252775-2.448696-31.225929-7.374419c-8.973154-4.921676-16.456854-11.956111-22.487526-21.119494-6.030672-9.163383-10.551652-20.245249-13.599367-33.269882a193.285059 193.285059 0 0 1-4.561455-43.967241c0-16.197818 1.513739-30.841423 4.561455-43.902482 3.027478-13.065107 7.568696-24.191494 13.599367-33.419636a62.706846 62.706846 0 0 1 22.487526-21.184253c8.952917-4.897391 19.375051-7.350134 31.225929-7.350135s22.273012 2.448696 31.28664 7.350135c9.021723 4.925723 16.545897 11.980395 22.556332 21.184253 6.030672 9.207905 10.592126 20.358577 13.660079 33.419636 3.092237 13.085344 4.626213 27.704664 4.626214 43.902482z m-121.220554-0.064759c0 15.473328 1.258751 28.732711 3.79649 39.770056 2.537739 11.041391 6.030672 20.099542 10.486894 27.17445 4.452174 7.074909 9.632885 12.296095 15.582608 15.623083a38.406071 38.406071 0 0 0 19.225297 5.006672 38.814862 38.814862 0 0 0 19.290055-5.006672c5.96996-3.347225 11.191146-8.548174 15.64332-15.623083 4.456221-7.074909 7.953202-16.133059 10.486894-27.17445 2.537739-11.017107 3.79649-24.272443 3.79649-39.770056 0-15.469281-1.254704-28.769138-3.79649-39.830766-2.533692-11.081866-6.030672-20.184538-10.482846-27.320159-4.456221-7.143715-9.677407-12.385138-15.647368-15.772838a38.45464 38.45464 0 0 0-19.290055-5.095715 38.106561 38.106561 0 0 0-19.225297 5.095715c-5.925439 3.3877-11.130435 8.653407-15.582608 15.768791-4.452174 7.139668-7.949154 16.24234-10.482846 27.320158-2.541787 11.065676-3.79649 24.341249-3.79649 39.834814z m245.169075 105.799842V467.802055h-96.474561v-25.830703l94.79083-130.626783h23.382008v138.235953h30.841423v18.221533h-30.841423v52.25638h-21.698277z m-77.459731-70.48196h77.479968V340.672253l-77.479968 108.908269zM575.917028 123.284743l5.540932-2.452743 20.184538 45.505265-5.54498 2.448695z" p-id="4756"></path><path d="M563.807115 146.727462l48.812015-9.802877 1.193993 5.925439-48.812016 9.823114-1.193992-5.945676z m102.22596-24.741944c-2.17347 0-4.452174-0.234751-6.840158-0.684016-9.167431-1.744443-18.929834-6.734925-27.518482-14.044585-8.588648-7.30966-15.048348-16.173534-18.225581-24.956459-3.132711-8.718166-2.748206-16.537802 1.048284-22.273011 1.137328-2.06419 2.987004-3.642688 5.200949-4.452174 2.387984-0.789249 5.13619-1.963004 8.479368-3.347226 8.418656-3.517217 14.497897-7.265138 17.565849-10.887589a54.409613 54.409613 0 0 0 12.126103-27.388964l9.062198 0.769012a62.868743 62.868743 0 0 1-14.238862 32.476585c-4.047431 4.775968-11.130435 9.292901-21.018308 13.409138-3.19747 1.3397-6.224949 2.428458-8.653407 3.237945l-0.275226 0.319747c-2.752253 3.217708-3.007241 8.718166-0.728537 15.068585 2.64702 7.30966 8.167715 14.813597 15.562371 21.119494 7.394656 6.309945 15.687842 10.571889 23.317249 12.02087 5.925439 1.108996 10.847115 0.339984 13.793645-2.132996 0.485692-4.387415 2.962719-18.836743 14.554561-31.306878 10.146909-10.911874 35.087178-16.537802 36.131415-16.796838l1.983241 8.867921c-6.435415 1.428743-24.620522 6.759209-31.440443 14.085059a47.480411 47.480411 0 0 0-12.235383 26.688759s-0.234751 1.278988-0.384506 1.724206a26.320443 26.320443 0 0 1-0.704253 1.659446c-3.836964 4.500743-9.568126 6.823968-16.562087 6.823969z" p-id="4757"></path><path d="M632.912949 100.781028L589.386877 143.319526l43.526072-42.538498z m-46.723542 39.276268l43.526071-42.538498 6.350419 6.47589-43.526071 42.562782-6.354466-6.500174zM680.761676 105.573186c-10.867352-0.594972-23.207968-6.435415-33.889138-16.003542-11.231621-10.08215-18.650561-22.697992-19.824317-33.779857l6.030672-0.639495c1.003763 9.48313 7.847968 20.949502 17.845123 29.898372 9.527652 8.548174 20.803794 13.963636 30.157407 14.473613l-0.319747 6.050909z m33.059415-30.177644c-11.126387 0-24.681233-5.731162-36.617107-16.43257-8.888158-7.973439-15.497613-17.541565-18.585802-26.939699-3.391747-10.252142-2.258466-19.225296 3.156996-25.255969 10.69736-11.911589 34.208885-7.669881 53.559652 9.697645 19.334577 17.351336 26.114024 40.280032 15.432854 52.195668-4.087905 4.541217-10.061913 6.734925-16.946593 6.734925zM678.673202 9.029818c-4.261945 0-7.819636 1.214229-10.142862 3.792443-4.241708 4.731447-2.622735 12.275858-1.303273 16.347573 2.602498 7.904632 8.293186 16.0683 16.027826 22.993455 15.028111 13.46985 33.678672 18.245818 40.737392 10.401897 7.030387-7.843921 0.295462-25.875225-14.732649-39.365312-10.102387-9.05815-21.823747-14.170055-30.586434-14.170056z" p-id="4758"></path><path d="M723.988237 63.738941c-10.847115 0-24.191494-5.690688-35.69834-16.007589-16.096632-14.429091-23.72604-33.65034-18.140585-45.735969l5.496411 2.53774c-4.4117 9.568126 2.752253 26.190925 16.691605 38.681296 14.708364 13.194625 32.90966 18.286292 41.437597 11.591842l1.683731 2.153233s0.020237 3.177233-0.769012 4.4117a23.066308 23.066308 0 0 1-10.701407 2.367747zM811.995573 857.225613H333.670198a6.989913 6.989913 0 1 1 0-13.983874h478.34966a6.989913 6.989913 0 1 1-0.020237 13.983874z" p-id="4759"></path><path d="M812.019858 860.273328H333.670198a10.057866 10.057866 0 0 1 0-20.059067h478.34966a10.029534 10.029534 0 1 1 0 20.059067zM333.670198 846.289455a3.95434 3.95434 0 1 0 0 7.908679h478.34966a3.95434 3.95434 0 1 0 0-7.908679H333.670198zM811.995573 768.971383H333.670198a6.989913 6.989913 0 1 1 0-13.983873h478.34966a6.989913 6.989913 0 1 1-0.020237 13.979826z" p-id="4760"></path><path d="M812.019858 771.994814H333.670198a10.061913 10.061913 0 0 1-10.037629-10.017391 10.049771 10.049771 0 0 1 10.037629-10.017391h478.34966a10.017391 10.017391 0 1 1 0 20.034782zM333.670198 758.035225a3.966482 3.966482 0 0 0-3.966483 3.942198c0 2.17347 1.772775 3.942198 3.966483 3.942198h478.34966a3.942198 3.942198 0 1 0 0-7.884396H333.670198zM513.655399 680.713107H333.670198a6.989913 6.989913 0 1 1 0-13.979826h179.985201a6.989913 6.989913 0 1 1 0 13.979826z" p-id="4761"></path><path d="M513.631115 683.740585H333.64996a10.049771 10.049771 0 0 1-10.037628-10.017391 10.049771 10.049771 0 0 1 10.037628-10.017392h179.981155a10.017391 10.017391 0 1 1 0 20.034783z m-179.960917-13.983874a3.966482 3.966482 0 0 0-3.966483 3.946246c0 2.17347 1.772775 3.942198 3.966483 3.942197h179.985201a3.942198 3.942198 0 1 0 0-7.884395H333.670198z" p-id="4762"></path><path d="M900.006957 50.588838h-158.092649c0.214514 2.578213 1.133281 14.044585-7.054672 24.252205h165.127083a24.349344 24.349344 0 0 1 24.32506 24.316965v875.285249a24.349344 24.349344 0 0 1-24.32506 24.316964H124.126609a24.341249 24.341249 0 0 1-24.32506-24.316964V345.108237a24.349344 24.349344 0 0 1 24.32506-24.321012h97.789976v525.736981a12.150387 12.150387 0 0 0 24.280538 0l-0.024285-0.364269V99.162055a24.349344 24.349344 0 0 1 24.325059-24.316964h334.576822c0-4.816443-0.534261-15.813312 8.908396-24.252206H270.473613c-26.806134 0.044522-48.520601 21.767083-48.557028 48.56917v197.377012H124.126609C97.316427 296.555257 75.593866 318.281866 75.565534 345.083953v629.335019c0.024285 26.806134 21.746846 48.528696 48.55298 48.552981h775.884395c26.806134-0.036427 48.528696-21.746846 48.577265-48.548933V99.158008c-0.036427-26.810182-21.763036-48.536791-48.577265-48.56917z" p-id="4763"></path></svg>